# xmcd
# 
# Track frame offsets:
#     150
#     14197
#     27844
#     43232
#     54227
#     69797
#     82592
#     94394
#     106159
#     118814
#     131919
#     145324
#     158639
#     170362
# 
# Disc length: 2484
# 
# Revision: 3
# Processed by: cddbd v1.5.2PL0 Copyright (c) Steve Scherf et al.
# Submitted via: fre:ac v1.0.31
# 
DISCID=b709b20e
DTITLE=Dick Farney - Folha 50 Anos de Bossa Nova
DYEAR=2008
DGENRE=Bossa Nova
TTITLE0=Copacabana
TTITLE1=Tereza da Praia
TTITLE2=Inútil Paisagem
TTITLE3=Uma Loura
TTITLE4=Sábado em Copacabana
TTITLE5=Aeromoça
TTITLE6=Não tem Solução
TTITLE7=Chuva
TTITLE8=Fotografia
TTITLE9=Marina
TTITLE10=Ponto Final
TTITLE11=Nick Bar
TTITLE12=O que é Amar
TTITLE13=Apelo
EXTD=YEAR: 2008
EXTT0=
EXTT1=
EXTT2=
EXTT3=
EXTT4=
EXTT5=
EXTT6=
EXTT7=
EXTT8=
EXTT9=
EXTT10=
EXTT11=
EXTT12=
EXTT13=
PLAYORDER=
